PathFileType	4	(X/Y/Z)	SUBJ32_0_static_RCNL2025.trc
DataRate	CameraRate	NumFrames	NumMarkers	Units	OrigDataRate	OrigDataStartFrame	OrigNumFrames
100	100	5	25	mm	100	72	114
Frame#	Time	R_Shoulder			L_Shoulder			C7			J_Notch			R_Elbow			L_Elbow			R_Wrist			L_Wrist			R_Asis			L_Asis			Sacral			Thoracic			Sternum			R_Thigh_Lateral			R_Knee_Lateral			R_Shank_Lateral			R_Ankle_Lateral			R_Heel			R_Toe			L_Thigh_Lateral			L_Knee_Lateral			L_Shank_Lateral			L_Ankle_Lateral			L_Heel			L_Toe		
		X1	Y1	Z1	X2	Y2	Z2	X3	Y3	Z3	X4	Y4	Z4	X5	Y5	Z5	X6	Y6	Z6	X7	Y7	Z7	X8	Y8	Z8	X9	Y9	Z9	X10	Y10	Z10	X11	Y11	Z11	X12	Y12	Z12	X13	Y13	Z13	X14	Y14	Z14	X15	Y15	Z15	X16	Y16	Z16	X17	Y17	Z17	X18	Y18	Z18	X19	Y19	Z19	X20	Y20	Z20	X21	Y21	Z21	X22	Y22	Z22	X23	Y23	Z23	X24	Y24	Z24	X25	Y25	Z25
72	0.71000000	-247.664780	1369.212158	-56.498058	-276.006134	1366.441772	-426.855682	-300.613953	1437.389404	-229.564240	-160.093811	1356.261963	-245.760620	-274.962036	1036.716187	51.153069	-309.707916	1048.997925	-527.503662	-203.779625	799.777527	70.634968	-237.389839	804.626312	-571.333099	-151.642456	915.506653	-125.480347	-158.655655	906.609070	-377.082825	-352.272705	953.143555	-242.437637	-369.509003	1202.835449	-234.786011	-72.236122	1134.191040	-249.089859	-269.298401	554.684143	-42.941368	-273.267670	456.151154	-85.440208	-302.550171	301.042816	-12.240179	-311.734406	68.652000	-114.698906	-357.480438	57.116043	-171.474136	-177.945343	50.008049	-132.259308	-264.226379	567.612915	-470.441833	-270.675690	472.968872	-425.245697	-309.308502	254.588425	-460.866730	-324.123383	61.915226	-379.815247	-364.709412	51.386673	-325.632812	-185.036316	40.607838	-379.952118
73	0.72000000	-247.856934	1369.137573	-56.467499	-276.351318	1366.340088	-426.760101	-300.917450	1437.354614	-229.560959	-160.212463	1356.275513	-245.837570	-275.263519	1036.667480	51.131298	-309.769226	1048.937866	-527.556641	-203.885597	799.782043	70.514429	-237.348328	804.589111	-571.503265	-151.566910	915.649414	-125.511894	-158.662552	906.500671	-376.962952	-352.329285	953.163147	-242.506699	-369.658081	1202.843140	-234.780869	-72.360382	1134.230469	-249.125748	-269.264832	554.723816	-42.952595	-273.193878	456.117065	-85.380272	-302.462830	301.016022	-12.187155	-311.251465	68.513870	-114.959618	-357.584869	57.146660	-171.458984	-177.938568	50.019535	-132.276291	-264.280609	567.568054	-470.421906	-270.675903	472.959167	-425.243683	-309.265350	254.601196	-460.878632	-324.065704	61.898121	-379.752777	-364.668854	51.401680	-325.672241	-185.065018	40.688694	-379.930664
74	0.73000000	-248.103043	1369.171753	-56.517220	-276.684418	1366.336670	-426.743256	-301.071899	1437.245361	-229.474304	-160.467361	1356.259521	-245.860535	-275.468018	1036.644775	51.113441	-309.747986	1048.899292	-527.602966	-204.639290	799.747070	70.117161	-237.355957	804.550812	-571.705566	-151.653915	915.743591	-125.448517	-158.629883	906.626404	-377.070496	-352.391479	953.044556	-242.460114	-369.738342	1202.742920	-234.711670	-72.351364	1134.279419	-249.186493	-269.265533	554.722290	-42.945778	-273.189087	456.104797	-85.377808	-302.463257	300.992157	-12.278719	-311.696716	68.681671	-114.732513	-357.480591	57.050961	-171.473770	-177.957825	50.034863	-132.255493	-264.160553	567.607849	-470.457855	-270.534576	472.869537	-425.257416	-309.216248	254.602524	-460.864716	-324.089172	61.940590	-379.711182	-364.700104	51.369987	-325.626404	-185.053680	40.652912	-379.929901
75	0.74000000	-248.350906	1369.106689	-56.465958	-276.966187	1366.351685	-426.798096	-301.363739	1437.305664	-229.472534	-160.504562	1356.480591	-245.874252	-275.760010	1036.635864	51.088837	-309.575562	1048.823853	-527.603333	-205.298859	799.608551	69.918131	-237.355408	804.471436	-571.777832	-151.749802	915.753174	-125.469292	-158.625122	906.675781	-377.058044	-352.393494	953.040222	-242.474091	-369.894562	1202.677856	-234.696884	-72.421509	1134.402100	-249.210022	-269.188446	554.684692	-42.919659	-273.194580	456.120239	-85.387596	-302.483398	301.007141	-12.278204	-311.814972	68.689713	-114.672462	-357.466064	57.028450	-171.475647	-177.960266	50.003273	-132.245148	-264.181885	567.620911	-470.438629	-270.533295	472.927521	-425.265961	-309.050720	254.618088	-461.023834	-324.136353	61.927769	-379.697052	-364.725433	51.283527	-325.550690	-185.028015	40.684132	-379.948395
76	0.75000000	-248.473648	1369.134399	-56.493843	-277.151276	1366.327026	-426.770233	-301.620300	1437.221924	-229.429321	-160.653503	1356.510864	-245.863602	-275.989410	1036.597900	51.116444	-309.554596	1048.822021	-527.621460	-205.562714	799.542419	69.879211	-237.417213	804.397095	-571.783478	-151.888000	915.704346	-125.503906	-158.719055	906.683228	-377.142395	-352.482056	952.984741	-242.412399	-370.065063	1202.638184	-234.594208	-72.592453	1134.473999	-249.237152	-269.178558	554.678955	-42.907040	-273.215149	456.114349	-85.365860	-302.490875	301.021057	-12.243671	-311.831543	68.718628	-114.682961	-357.543488	57.047199	-171.444122	-177.968216	50.044296	-132.249039	-264.125305	567.548340	-470.347809	-270.453979	472.912781	-425.234375	-309.054932	254.603912	-461.015991	-324.075745	61.900417	-379.747833	-364.702484	51.402962	-325.635925	-185.032089	40.695892	-379.948578
